HIERARCHY
ROOT joint_Root
{
	OFFSET 0.0 0.0 0.0
	CHANNELS 6 Xposition Yposition Zposition Zrotation Xrotation Yrotation 
	JOINT Hips
	{
		OFFSET 4.5925 91.4895 -427.239
		CHANNELS 6 Xposition Yposition Zposition Zrotation Xrotation Yrotation 
		JOINT Spine
		{
			OFFSET 15.7357 0.0 0.0
			CHANNELS 6 Xposition Yposition Zposition Zrotation Xrotation Yrotation 
			JOINT Chest
			{
				OFFSET 8.98455 -0.406207 0.0
				CHANNELS 6 Xposition Yposition Zposition Zrotation Xrotation Yrotation 
				JOINT Neck
				{
					OFFSET 16.3773 0.0 0.0
					CHANNELS 6 Xposition Yposition Zposition Zrotation Xrotation Yrotation 
					JOINT Head
					{
						OFFSET 6.45672 0.0 0.0
						CHANNELS 6 Xposition Yposition Zposition Zrotation Xrotation Yrotation 
						End Site
						{
							OFFSET 0.0 0.0 0.0
						}
					}
				}
				JOINT Shoulder_L
				{
					OFFSET 12.9942 -0.242716 4.98039
					CHANNELS 6 Xposition Yposition Zposition Zrotation Xrotation Yrotation 
					JOINT UpperArm_L
					{
						OFFSET 5.34809 0.0 0.0
						CHANNELS 6 Xposition Yposition Zposition Zrotation Xrotation Yrotation 
						JOINT LowerArm_L
						{
							OFFSET 24.3286 1.87007e-05 0.0
							CHANNELS 6 Xposition Yposition Zposition Zrotation Xrotation Yrotation 
							JOINT Hand_L
							{
								OFFSET 22.2916 0.0 0.0
								CHANNELS 6 Xposition Yposition Zposition Zrotation Xrotation Yrotation 
								End Site
								{
									OFFSET 0.0 0.0 0.0
								}
							}
						}
					}
				}
				JOINT Shoulder_R
				{
					OFFSET 12.9945 -0.242716 -4.98039
					CHANNELS 6 Xposition Yposition Zposition Zrotation Xrotation Yrotation 
					JOINT UpperArm_R
					{
						OFFSET -5.34813 0.0 0.0
						CHANNELS 6 Xposition Yposition Zposition Zrotation Xrotation Yrotation 
						JOINT LowerArm_R
						{
							OFFSET -24.3289 0.000322201 0.0
							CHANNELS 6 Xposition Yposition Zposition Zrotation Xrotation Yrotation 
							JOINT Hand_R
							{
								OFFSET -22.2915 -0.000108084 0.0
								CHANNELS 6 Xposition Yposition Zposition Zrotation Xrotation Yrotation 
								End Site
								{
									OFFSET 0.0 0.0 0.0
								}
							}
						}
					}
				}
			}
		}
		JOINT UpperLeg_L
		{
			OFFSET -2.19248 -6.46944 0.0
			CHANNELS 6 Xposition Yposition Zposition Zrotation Xrotation Yrotation 
			JOINT LowerLeg_L
			{
				OFFSET 39.0811 0.0 -1.23785e-05
				CHANNELS 6 Xposition Yposition Zposition Zrotation Xrotation Yrotation 
				JOINT Foot_L
				{
					OFFSET 40.9854 0.0 -1.26872e-05
					CHANNELS 6 Xposition Yposition Zposition Zrotation Xrotation Yrotation 
					JOINT Toes_L
					{
						OFFSET 11.7543 0.0 0.0
						CHANNELS 6 Xposition Yposition Zposition Zrotation Xrotation Yrotation 
						End Site
						{
							OFFSET 0.0 0.0 0.0
						}
					}
				}
			}
		}
		JOINT UpperLeg_R
		{
			OFFSET -2.19251 6.46944 0.0
			CHANNELS 6 Xposition Yposition Zposition Zrotation Xrotation Yrotation 
			JOINT LowerLeg_R
			{
				OFFSET -39.0811 -0.00228153 -0.0401928
				CHANNELS 6 Xposition Yposition Zposition Zrotation Xrotation Yrotation 
				JOINT Foot_R
				{
					OFFSET -40.9854 0.0 0.0
					CHANNELS 6 Xposition Yposition Zposition Zrotation Xrotation Yrotation 
					JOINT Toes_R
					{
						OFFSET -11.7543 0.0 0.0
						CHANNELS 6 Xposition Yposition Zposition Zrotation Xrotation Yrotation 
						End Site
						{
							OFFSET 0.0 0.0 0.0
						}
					}
				}
			}
		}
	}
}
MOTION
Frames:	5
Frame Time:	0.0333333
0.000000 0.000000 0.000000 0.000000 0.000000 -0.000000 -10.515100 89.343300 -1.099330 83.787400 -4.532540 9.939200 15.735700 0.000005 -0.000001 86.123500 81.547000 -84.100100 8.984550 -0.406207 -0.000000 9.125630 -1.112790 4.132330 16.377300 -0.000001 -0.000001 3.134230 -3.445660 1.856240 6.456720 -0.000001 -0.000000 -4.114120 -1.452740 -2.725080 12.994200 -0.242716 4.980390 -91.497700 5.880190 -75.683500 5.348090 -0.000007 -0.000001 -60.794500 43.208400 -18.421500 24.328600 0.000019 0.000005 7.999070 20.911600 -21.489700 22.291600 -0.000001 0.000005 7.828890 5.271680 0.852522 12.994500 -0.242716 -4.980390 88.475800 11.087600 -82.122300 -5.348130 -0.000001 -0.000004 -62.803800 29.333600 -12.313500 -24.328900 0.000322 -0.000009 0.504501 1.427720 -19.501200 -22.291500 -0.000108 -0.000004 12.436900 5.336870 -0.986910 -2.192480 -6.469440 -0.000000 -161.818000 -9.136730 -3.191410 39.081100 -0.000007 -0.000012 -0.360848 0.485132 36.643200 40.985400 -0.000006 -0.000013 -7.791260 4.315650 -71.468100 11.754300 -0.000000 0.000003 -0.000084 -0.000890 -16.611800 -2.192510 6.469440 -0.000001 -173.472000 24.941100 -178.823000 -39.081100 -0.002282 -0.040193 -0.128586 0.217946 31.179600 -40.985400 0.000008 0.000006 11.217000 12.156400 -74.091000 -11.754300 -0.000006 -0.000006 -0.001621 -0.023862 -17.543400
0.000000 0.000000 0.000000 0.000000 0.000000 -0.000000 -10.528000 89.347300 -1.199010 83.747200 -4.564860 9.992230 15.735700 0.000005 -0.000001 86.232100 81.548000 -84.221300 8.984550 -0.406207 -0.000000 9.124830 -1.081000 4.104640 16.377300 -0.000001 -0.000001 3.433010 -3.321370 1.815170 6.456720 -0.000001 -0.000000 -3.808460 -1.264320 -3.091480 12.994200 -0.242716 4.980390 -91.511000 5.903910 -75.617100 5.348090 -0.000007 -0.000001 -60.846600 43.243300 -18.346800 24.328600 0.000019 0.000005 8.032880 21.001100 -21.493500 22.291600 -0.000001 0.000005 7.709460 5.271390 0.860683 12.994500 -0.242716 -4.980390 88.447600 11.087600 -81.978400 -5.348130 -0.000001 -0.000004 -62.249600 28.881000 -12.626000 -24.328900 0.000322 -0.000009 0.551695 1.546010 -19.676500 -22.291500 -0.000108 -0.000004 12.466600 5.338730 -1.041940 -2.192480 -6.469440 -0.000000 -161.766000 -9.134270 -3.213420 39.081100 -0.000007 -0.000012 -0.358781 0.481923 36.667700 40.985400 -0.000006 -0.000013 -7.796540 4.307620 -71.410500 11.754300 -0.000000 0.000003 -0.000082 -0.000865 -16.610900 -2.192510 6.469440 -0.000001 -173.410000 24.952600 -178.836000 -39.081100 -0.002282 -0.040193 -0.125914 0.213638 31.166800 -40.985400 0.000008 0.000006 11.252400 12.178900 -74.021300 -11.754300 -0.000006 -0.000006 -0.001409 -0.021055 -17.429300
0.000000 0.000000 0.000000 0.000000 0.000000 -0.000000 -10.540000 89.345500 -1.295070 83.731400 -4.612060 10.047800 15.735700 0.000005 -0.000001 86.376800 81.547400 -84.393500 8.984550 -0.406207 -0.000000 9.127710 -1.039010 4.046150 16.377300 -0.000001 -0.000001 3.759570 -3.122500 1.714680 6.456720 -0.000001 -0.000000 -3.409390 -1.023670 -3.318580 12.994200 -0.242716 4.980390 -91.509100 5.869130 -75.552900 5.348090 -0.000007 -0.000001 -60.886700 43.285500 -18.300300 24.328600 0.000019 0.000005 8.041820 20.955600 -21.556100 22.291600 -0.000001 0.000005 7.778010 5.272480 0.831062 12.994500 -0.242716 -4.980390 88.420400 11.070500 -81.827400 -5.348130 -0.000001 -0.000004 -61.632400 28.087900 -12.986200 -24.328900 0.000322 -0.000009 0.540820 1.501390 -19.847900 -22.291500 -0.000108 -0.000004 12.531500 5.340740 -1.101240 -2.192480 -6.469440 -0.000000 -161.731000 -9.145930 -3.233850 39.081100 -0.000007 -0.000012 -0.360804 0.484039 36.701700 40.985400 -0.000006 -0.000013 -7.805460 4.294620 -71.357900 11.754300 -0.000000 0.000003 -0.000092 -0.000957 -16.614300 -2.192510 6.469440 -0.000001 -173.355000 24.880400 -178.867000 -39.081100 -0.002282 -0.040193 -0.120219 0.203978 31.196900 -40.985400 0.000008 0.000006 11.274800 12.157400 -73.969600 -11.754300 -0.000006 -0.000006 -0.001628 -0.023962 -17.547400
0.000000 0.000000 0.000000 0.000000 0.000000 -0.000000 -10.546100 89.350900 -1.383020 83.709900 -4.626950 10.093200 15.735700 0.000005 -0.000001 86.335500 81.558400 -84.376700 8.984550 -0.406207 -0.000000 9.104840 -1.050410 3.997970 16.377300 -0.000001 -0.000001 4.137150 -2.869070 1.649040 6.456720 -0.000001 -0.000000 -2.918100 -0.672651 -3.608270 12.994200 -0.242716 4.980390 -91.515000 5.853520 -75.462000 5.348090 -0.000007 -0.000001 -60.856400 43.298800 -18.268600 24.328600 0.000019 0.000005 8.037480 20.872300 -21.619900 22.291600 -0.000001 0.000005 7.807490 5.274690 0.771115 12.994500 -0.242716 -4.980390 88.404600 11.004400 -81.698500 -5.348130 -0.000001 -0.000004 -61.003800 27.102900 -13.397400 -24.328900 0.000322 -0.000009 0.424322 1.173080 -19.933100 -22.291500 -0.000108 -0.000004 12.683900 5.341970 -1.137660 -2.192480 -6.469440 -0.000000 -161.708000 -9.139250 -3.250240 39.081100 -0.000007 -0.000012 -0.356929 0.478644 36.713000 40.985400 -0.000006 -0.000013 -7.812380 4.266370 -71.304600 11.754300 -0.000000 0.000003 -0.000085 -0.000899 -16.612200 -2.192510 6.469440 -0.000001 -173.322000 24.946100 -178.868000 -39.081100 -0.002282 -0.040193 -0.118115 0.200684 31.174200 -40.985400 0.000008 0.000006 11.301200 12.162000 -73.909800 -11.754300 -0.000006 -0.000006 -0.001703 -0.024934 -17.587000
0.000000 0.000000 0.000000 0.000000 0.000000 -0.000000 -10.541400 89.348600 -1.474770 83.718300 -4.615010 10.184600 15.735700 0.000005 -0.000001 86.225100 81.563900 -84.301500 8.984550 -0.406207 -0.000000 9.091840 -1.082620 3.930030 16.377300 -0.000001 -0.000001 4.569910 -2.607260 1.565960 6.456720 -0.000001 -0.000000 -2.316090 -0.310458 -3.916110 12.994200 -0.242716 4.980390 -91.526200 5.862250 -75.379400 5.348090 -0.000007 -0.000001 -60.771200 43.254700 -18.260000 24.328600 0.000019 0.000005 8.046350 20.858300 -21.654400 22.291600 -0.000001 0.000005 7.875890 5.273400 0.805925 12.994500 -0.242716 -4.980390 88.390600 10.899100 -81.548100 -5.348130 -0.000001 -0.000004 -60.335700 26.184600 -13.869800 -24.328900 0.000322 -0.000009 0.413643 1.145870 -19.896900 -22.291500 -0.000108 -0.000004 13.025900 5.341200 -1.114820 -2.192480 -6.469440 -0.000000 -161.723000 -9.079490 -3.254140 39.081100 -0.000007 -0.000012 -0.358713 0.480398 36.749500 40.985400 -0.000006 -0.000013 -7.812360 4.232700 -71.260600 11.754300 -0.000000 0.000003 -0.000087 -0.000914 -16.612700 -2.192510 6.469440 -0.000001 -173.322000 24.884000 -178.883000 -39.081100 -0.002282 -0.040193 -0.117542 0.199266 31.234100 -40.985400 0.000008 0.000006 11.292400 12.090800 -73.860700 -11.754300 -0.000006 -0.000006 -0.001631 -0.023997 -17.548900
